HIERARCHY
ROOT Hips
{
	OFFSET -0.0000 110.6000 0.0000
	CHANNELS 6 Xposition Yposition Zposition Yrotation Xrotation Zrotation
	JOINT RightUpperLeg
	{
		OFFSET -10.4000 -8.9000 0.0000
		CHANNELS 3 Yrotation Xrotation Zrotation
		JOINT RightLowerLeg
		{
			OFFSET -0.0000 -45.6000 0.0000
			CHANNELS 3 Yrotation Xrotation Zrotation
			JOINT RightFoot
			{
				OFFSET -0.0000 -46.7000 0.0000
				CHANNELS 3 Yrotation Xrotation Zrotation
				JOINT RightToe
				{
					OFFSET -0.0000 -8.0000 12.0000
					CHANNELS 3 Yrotation Xrotation Zrotation
					End Site
					{
						OFFSET -0.0000 0.0000 2.4000
					}
				}
			}
		}
	}
	JOINT LeftUpperLeg
	{
		OFFSET 10.4000 -8.9000 0.0000
		CHANNELS 3 Yrotation Xrotation Zrotation
		JOINT LeftLowerLeg
		{
			OFFSET -0.1000 -45.6000 0.0000
			CHANNELS 3 Yrotation Xrotation Zrotation
			JOINT LeftFoot
			{
				OFFSET -0.0000 -46.7000 0.0000
				CHANNELS 3 Yrotation Xrotation Zrotation
				JOINT LeftToe
				{
					OFFSET -0.0000 -8.0000 12.0000
					CHANNELS 3 Yrotation Xrotation Zrotation
					End Site
					{
						OFFSET -0.0000 0.0000 2.4000
					}
				}
			}
		}
	}
	JOINT Spine
	{
		OFFSET -0.0000 9.6000 0.0000
		CHANNELS 3 Yrotation Xrotation Zrotation
		JOINT Spine1
		{
			OFFSET -0.0000 11.2000 0.0000
			CHANNELS 3 Yrotation Xrotation Zrotation
			JOINT Spine2
			{
				OFFSET -0.0000 12.1000 0.0000
				CHANNELS 3 Yrotation Xrotation Zrotation
				JOINT Spine3
				{
					OFFSET -0.0000 11.7000 0.0000
					CHANNELS 3 Yrotation Xrotation Zrotation
					JOINT Neck
					{
						OFFSET -0.0000 12.0000 0.0000
						CHANNELS 3 Yrotation Xrotation Zrotation
						JOINT Head
						{
							OFFSET -0.0000 10.1000 0.0000
							CHANNELS 3 Yrotation Xrotation Zrotation
							End Site
							{
								OFFSET -0.0000 20.2000 0.0000
							}
						}
					}
					JOINT RightShoulder
					{
						OFFSET -4.8000 4.0000 0.0000
						CHANNELS 3 Yrotation Xrotation Zrotation
						JOINT RightUpperArm
						{
							OFFSET -15.6000 0.0000 0.0000
							CHANNELS 3 Yrotation Xrotation Zrotation
							JOINT RightLowerArm
							{
								OFFSET -26.0000 0.0000 0.0000
								CHANNELS 3 Yrotation Xrotation Zrotation
								JOINT RightHand
								{
									OFFSET -28.4000 0.0000 0.0000
									CHANNELS 3 Yrotation Xrotation Zrotation
									JOINT RightThumbFinger
									{
										OFFSET -3.3000 0.4000 4.1000
										CHANNELS 3 Yrotation Xrotation Zrotation
										JOINT RightThumbFinger1
										{
											OFFSET -3.5000 0.0000 3.5000
											CHANNELS 3 Yrotation Xrotation Zrotation
											JOINT RightThumbFinger2
											{
												OFFSET -2.5000 0.0000 2.5000
												CHANNELS 3 Yrotation Xrotation Zrotation
												End Site
												{
													OFFSET -2.1450 0.0000 2.1450
												}
											}
										}
									}
									JOINT RightIndexFinger
									{
										OFFSET -4.3000 0.7000 2.5000
										CHANNELS 3 Yrotation Xrotation Zrotation
										JOINT RightIndexFinger1
										{
											OFFSET -7.0000 -0.1000 1.4000
											CHANNELS 3 Yrotation Xrotation Zrotation
											JOINT RightIndexFinger2
											{
												OFFSET -5.0000 -0.2000 0.0000
												CHANNELS 3 Yrotation Xrotation Zrotation
												JOINT RightIndexFinger3
												{
													OFFSET -2.8000 -0.2000 0.0000
													CHANNELS 3 Yrotation Xrotation Zrotation
													End Site
													{
														OFFSET -2.4696 -0.1764 0.0000
													}
												}
											}
										}
									}
									JOINT RightMiddleFinger
									{
										OFFSET -4.5000 0.7000 0.9000
										CHANNELS 3 Yrotation Xrotation Zrotation
										JOINT RightMiddleFinger1
										{
											OFFSET -7.1000 -0.1000 0.4000
											CHANNELS 3 Yrotation Xrotation Zrotation
											JOINT RightMiddleFinger2
											{
												OFFSET -5.2000 -0.2000 0.0000
												CHANNELS 3 Yrotation Xrotation Zrotation
												JOINT RightMiddleFinger3
												{
													OFFSET -3.4000 -0.4000 0.0000
													CHANNELS 3 Yrotation Xrotation Zrotation
													End Site
													{
														OFFSET -2.9988 -0.3528 0.0000
													}
												}
											}
										}
									}
									JOINT RightRingFinger
									{
										OFFSET -4.5000 0.9000 -0.1000
										CHANNELS 3 Yrotation Xrotation Zrotation
										JOINT RightRingFinger1
										{
											OFFSET -6.2000 -0.2000 -0.7000
											CHANNELS 3 Yrotation Xrotation Zrotation
											JOINT RightRingFinger2
											{
												OFFSET -4.7000 -0.3000 0.0000
												CHANNELS 3 Yrotation Xrotation Zrotation
												JOINT RightRingFinger3
												{
													OFFSET -3.3000 -0.4000 0.0000
													CHANNELS 3 Yrotation Xrotation Zrotation
													End Site
													{
														OFFSET -2.9106 -0.3528 0.0000
													}
												}
											}
										}
									}
									JOINT RightPinkyFinger
									{
										OFFSET -4.2000 0.7000 -1.6000
										CHANNELS 3 Yrotation Xrotation Zrotation
										JOINT RightPinkyFinger1
										{
											OFFSET -5.6000 -0.1000 -1.4000
											CHANNELS 3 Yrotation Xrotation Zrotation
											JOINT RightPinkyFinger2
											{
												OFFSET -3.8000 -0.2000 0.0000
												CHANNELS 3 Yrotation Xrotation Zrotation
												JOINT RightPinkyFinger3
												{
													OFFSET -2.3000 0.0000 0.0000
													CHANNELS 3 Yrotation Xrotation Zrotation
													End Site
													{
														OFFSET -2.0286 0.0000 0.0000
													}
												}
											}
										}
									}
								}
							}
						}
					}
					JOINT LeftShoulder
					{
						OFFSET 4.8000 4.0000 0.0000
						CHANNELS 3 Yrotation Xrotation Zrotation
						JOINT LeftUpperArm
						{
							OFFSET 15.6000 0.0000 0.0000
							CHANNELS 3 Yrotation Xrotation Zrotation
							JOINT LeftLowerArm
							{
								OFFSET 26.0000 0.0000 0.0000
								CHANNELS 3 Yrotation Xrotation Zrotation
								JOINT LeftHand
								{
									OFFSET 28.4000 0.0000 0.0000
									CHANNELS 3 Yrotation Xrotation Zrotation
									JOINT LeftThumbFinger
									{
										OFFSET 3.3000 0.4000 4.1000
										CHANNELS 3 Yrotation Xrotation Zrotation
										JOINT LeftThumbFinger1
										{
											OFFSET 3.5000 0.0000 3.5000
											CHANNELS 3 Yrotation Xrotation Zrotation
											JOINT LeftThumbFinger2
											{
												OFFSET 2.5000 0.0000 2.5000
												CHANNELS 3 Yrotation Xrotation Zrotation
												End Site
												{
													OFFSET 2.1450 0.0000 2.1450
												}
											}
										}
									}
									JOINT LeftIndexFinger
									{
										OFFSET 4.3000 0.7000 2.5000
										CHANNELS 3 Yrotation Xrotation Zrotation
										JOINT LeftIndexFinger1
										{
											OFFSET 7.0000 -0.1000 1.4000
											CHANNELS 3 Yrotation Xrotation Zrotation
											JOINT LeftIndexFinger2
											{
												OFFSET 5.0000 -0.2000 0.0000
												CHANNELS 3 Yrotation Xrotation Zrotation
												JOINT LeftIndexFinger3
												{
													OFFSET 2.8000 -0.2000 0.0000
													CHANNELS 3 Yrotation Xrotation Zrotation
													End Site
													{
														OFFSET 2.4696 -0.1764 0.0000
													}
												}
											}
										}
									}
									JOINT LeftMiddleFinger
									{
										OFFSET 4.5000 0.7000 0.9000
										CHANNELS 3 Yrotation Xrotation Zrotation
										JOINT LeftMiddleFinger1
										{
											OFFSET 7.1000 -0.1000 0.4000
											CHANNELS 3 Yrotation Xrotation Zrotation
											JOINT LeftMiddleFinger2
											{
												OFFSET 5.2000 -0.2000 0.0000
												CHANNELS 3 Yrotation Xrotation Zrotation
												JOINT LeftMiddleFinger3
												{
													OFFSET 3.4000 -0.4000 0.0000
													CHANNELS 3 Yrotation Xrotation Zrotation
													End Site
													{
														OFFSET 2.9988 -0.3528 0.0000
													}
												}
											}
										}
									}
									JOINT LeftRingFinger
									{
										OFFSET 4.5000 0.9000 -0.1000
										CHANNELS 3 Yrotation Xrotation Zrotation
										JOINT LeftRingFinger1
										{
											OFFSET 6.2000 -0.2000 -0.7000
											CHANNELS 3 Yrotation Xrotation Zrotation
											JOINT LeftRingFinger2
											{
												OFFSET 4.7000 -0.3000 0.0000
												CHANNELS 3 Yrotation Xrotation Zrotation
												JOINT LeftRingFinger3
												{
													OFFSET 3.3000 -0.2000 0.0000
													CHANNELS 3 Yrotation Xrotation Zrotation
													End Site
													{
														OFFSET 2.9106 -0.1764 0.0000
													}
												}
											}
										}
									}
									JOINT LeftPinkyFinger
									{
										OFFSET 4.2000 0.7000 -1.6000
										CHANNELS 3 Yrotation Xrotation Zrotation
										JOINT LeftPinkyFinger1
										{
											OFFSET 5.6000 -0.1000 -1.4000
											CHANNELS 3 Yrotation Xrotation Zrotation
											JOINT LeftPinkyFinger2
											{
												OFFSET 3.8000 -0.2000 0.1000
												CHANNELS 3 Yrotation Xrotation Zrotation
												JOINT LeftPinkyFinger3
												{
													OFFSET 2.3000 0.0000 -0.1000
													CHANNELS 3 Yrotation Xrotation Zrotation
													End Site
													{
														OFFSET 2.0286 0.0000 -0.0882
													}
												}
											}
										}
									}
								}
							}
						}
					}
				}
			}
		}
	}
}
MOTION
Frames: 11
Frame Time: 0.016667
-0.00 110.60 0.00 0.00 -0.00 0.00 0.00 -0.00 0.00 0.00 -0.00 0.00 0.00 -0.00 0.00 0.00 -0.00 0.00 0.00 -0.00 0.00 0.00 -0.00 0.00 0.00 -0.00 0.00 0.00 -0.00 0.00 0.00 -0.00 0.00 0.00 -0.00 0.00 0.00 -0.00 0.00 0.00 -0.00 0.00 0.00 -0.00 0.00 0.00 -0.00 0.00 0.00 -0.00 0.00 0.00 -0.00 0.00 0.00 -0.00 0.00 0.00 -0.00 0.00 0.00 -0.00 0.00 0.00 -0.00 0.00 0.00 -0.00 0.00 0.00 -0.00 0.00 0.00 -0.00 0.00 0.00 -0.00 0.00 0.00 -0.00 0.00 0.00 -0.00 0.00 0.00 -0.00 0.00 0.00 -0.00 0.00 0.00 -0.00 0.00 0.00 -0.00 0.00 0.00 -0.00 0.00 0.00 -0.00 0.00 0.00 -0.00 0.00 0.00 -0.00 0.00 0.00 -0.00 0.00 0.00 -0.00 0.00 0.00 -0.00 0.00 0.00 -0.00 0.00 0.00 -0.00 0.00 0.00 -0.00 0.00 0.00 -0.00 0.00 0.00 -0.00 0.00 0.00 -0.00 0.00 0.00 -0.00 0.00 0.00 -0.00 0.00 0.00 -0.00 0.00 0.00 -0.00 0.00 0.00 -0.00 0.00 0.00 -0.00 0.00 0.00 -0.00 0.00 0.00 -0.00 0.00 0.00 -0.00 0.00 0.00 -0.00 0.00 0.00 -0.00 0.00 0.00 -0.00 0.00 0.00 -0.00 0.00 0.00 -0.00 0.00 0.00 -0.00 0.00 0.00 -0.00 0.00 0.00 -0.00 0.00 
-3.19 110.30 57.83 1.79 0.02 -0.31 -5.92 3.51 -2.89 1.76 0.05 0.00 11.59 -5.25 2.19 -0.00 0.00 -0.00 18.57 3.46 4.46 -14.61 1.13 -0.41 -5.70 -6.52 -2.03 0.00 0.00 0.00 -3.69 -0.21 0.46 -0.54 -0.26 0.58 -0.59 -0.30 0.65 -0.59 -0.29 0.61 1.06 2.86 -3.32 0.92 2.45 -2.87 21.39 0.41 -15.82 4.07 -39.66 69.90 104.66 -9.98 4.81 11.98 25.14 -29.57 -0.75 3.99 4.13 8.27 7.06 1.01 11.65 2.07 0.72 0.00 -0.00 -0.00 8.78 1.24 -7.93 0.00 0.30 -1.96 -0.01 0.31 -1.97 0.00 -0.00 -0.00 8.79 1.23 -7.91 -0.00 0.31 -1.96 -0.01 0.31 -1.97 0.00 -0.00 -0.00 3.42 0.48 -7.99 -0.01 0.12 -2.00 -0.01 0.12 -2.00 0.00 -0.00 -0.00 -21.55 -2.94 -7.44 0.00 -0.74 -1.86 0.02 -0.74 -1.86 -7.30 0.38 -0.43 22.04 -39.71 -85.43 -83.91 -27.27 -32.52 -32.58 3.84 11.20 13.44 21.98 -20.89 9.00 6.60 6.62 13.21 -10.71 5.76 0.00 -0.00 0.00 0.01 -0.00 -9.78 0.01 -0.00 -2.74 -0.01 0.01 -2.75 0.00 -0.00 0.00 0.00 -0.01 -90.02 0.00 -0.01 -91.90 0.01 0.00 -88.10 0.00 -0.00 0.00 0.00 -0.01 -90.02 -0.00 -0.01 -99.99 0.01 -0.01 -80.01 0.00 -0.00 0.00 0.00 -0.00 -67.19 -0.02 0.00 -83.06 0.01 -0.02 -83.08 
-3.19 110.30 57.83 1.79 0.02 -0.31 -5.92 3.51 -2.91 1.76 0.07 0.01 11.59 -5.26 2.19 -0.00 0.00 0.00 18.57 3.46 4.46 -14.61 1.13 -0.41 -5.70 -6.52 -2.03 0.00 0.00 0.00 -3.74 -0.21 0.49 -0.54 -0.26 0.59 -0.60 -0.30 0.64 -0.60 -0.28 0.66 1.04 2.88 -3.37 0.90 2.47 -2.87 21.40 0.41 -15.79 3.98 -39.66 69.89 104.75 -10.14 4.97 11.88 25.21 -29.59 -0.75 3.99 4.13 8.27 7.06 1.01 11.66 2.06 0.72 0.00 -0.00 0.00 8.78 1.23 -7.93 -0.00 0.31 -1.96 -0.01 0.31 -1.97 0.00 -0.00 0.00 8.79 1.23 -7.91 -0.01 0.31 -1.97 -0.01 0.31 -1.97 0.00 -0.00 0.00 3.42 0.47 -7.99 -0.01 0.12 -2.00 -0.01 0.12 -2.00 0.00 -0.00 0.00 -21.54 -2.94 -7.44 -0.01 -0.74 -1.86 0.02 -0.74 -1.85 -7.28 0.42 -0.45 21.97 -39.76 -85.40 -83.93 -27.27 -32.43 -32.62 3.79 11.14 13.41 21.99 -20.91 8.95 6.61 6.60 13.12 -10.76 5.79 -0.00 0.00 -0.00 0.00 0.01 -9.73 0.01 -0.01 -2.74 -0.01 0.00 -2.72 -0.00 0.00 -0.00 -0.01 -0.00 -90.01 0.00 -0.01 -91.82 0.01 0.00 -88.18 -0.00 0.00 -0.00 -0.01 -0.00 -90.01 0.00 -0.01 -99.99 0.01 -0.00 -80.01 -0.00 0.00 -0.00 -0.01 -0.00 -67.13 -0.01 0.01 -83.05 -0.02 -0.01 -83.09 
-3.19 110.30 57.83 1.78 0.02 -0.31 -5.91 3.51 -2.91 1.76 0.04 0.00 11.59 -5.26 2.20 -0.00 0.00 0.00 18.58 3.46 4.46 -14.61 1.13 -0.41 -5.70 -6.52 -2.03 0.00 0.00 0.00 -3.73 -0.21 0.49 -0.56 -0.26 0.60 -0.61 -0.30 0.66 -0.61 -0.28 0.65 1.05 2.90 -3.38 0.90 2.48 -2.90 21.41 0.40 -15.77 3.93 -39.67 69.87 104.78 -10.26 5.08 11.88 25.26 -29.60 -0.78 4.06 4.20 8.27 7.15 0.94 11.65 2.04 0.73 0.00 -0.00 0.00 8.74 1.24 -7.92 -0.00 0.29 -1.96 -0.01 0.31 -1.98 0.00 -0.00 0.00 8.73 1.23 -7.92 0.00 0.30 -1.96 -0.01 0.31 -1.98 0.00 -0.00 0.00 3.42 0.48 -7.99 -0.01 0.12 -2.00 0.01 0.12 -2.00 0.00 -0.00 0.00 -21.50 -2.93 -7.46 0.01 -0.75 -1.84 -0.00 -0.73 -1.86 -7.27 0.47 -0.44 21.87 -39.84 -85.33 -83.96 -27.23 -32.33 -32.65 3.72 11.14 13.38 22.02 -20.94 8.92 6.59 6.62 13.10 -10.82 5.83 0.00 -0.00 0.00 -0.00 0.00 -9.71 -0.01 -0.00 -2.66 -0.00 -0.00 -2.68 0.00 -0.00 0.00 -0.02 0.00 -90.02 -0.00 -0.01 -91.80 0.01 -0.00 -88.20 0.00 -0.00 0.00 -0.02 0.00 -90.02 0.01 -0.01 -99.98 0.02 0.01 -80.02 0.00 -0.00 0.00 -0.01 -0.00 -67.09 -0.01 0.00 -83.06 -0.00 -0.02 -83.07 
-3.19 110.30 57.82 1.75 0.02 -0.31 -5.89 3.52 -2.92 1.77 0.03 0.00 11.58 -5.25 2.21 -0.00 0.00 -0.00 18.59 3.46 4.46 -14.61 1.13 -0.41 -5.70 -6.52 -2.03 0.00 0.00 -0.00 -3.74 -0.21 0.50 -0.58 -0.26 0.60 -0.62 -0.30 0.67 -0.63 -0.28 0.66 1.06 2.91 -3.39 0.90 2.49 -2.91 21.44 0.40 -15.74 3.85 -39.67 69.83 104.78 -10.35 5.22 11.88 25.27 -29.64 -0.80 4.08 4.24 8.28 7.23 0.92 11.65 2.02 0.72 0.00 0.00 -0.00 8.73 1.22 -7.94 -0.01 0.30 -1.95 -0.01 0.30 -1.97 0.00 0.00 -0.00 8.73 1.21 -7.91 -0.02 0.30 -1.99 0.00 0.30 -1.97 0.00 0.00 -0.00 3.38 0.47 -7.98 -0.01 0.12 -2.00 -0.00 0.11 -2.01 0.00 0.00 -0.00 -21.45 -2.93 -7.45 0.03 -0.74 -1.86 0.00 -0.74 -1.86 -7.24 0.48 -0.46 21.77 -39.90 -85.24 -84.01 -27.24 -32.21 -32.68 3.67 11.11 13.37 22.02 -20.96 8.92 6.59 6.62 13.07 -10.84 5.86 0.00 0.00 0.00 -0.01 -0.01 -9.67 0.01 0.01 -2.60 -0.01 -0.01 -2.61 0.00 -0.00 0.00 -0.01 -0.01 -90.02 0.01 0.00 -91.78 -0.00 0.01 -88.22 0.00 -0.00 0.00 -0.01 -0.01 -90.02 0.01 0.00 -99.98 -0.00 0.01 -80.02 0.00 -0.00 0.00 -0.02 -0.00 -67.04 -0.02 0.00 -83.05 -0.00 -0.01 -83.07 
-3.19 110.30 57.82 1.73 0.02 -0.31 -5.86 3.51 -2.91 1.77 0.04 0.00 11.58 -5.25 2.20 -0.00 0.00 0.00 18.61 3.47 4.46 -14.61 1.12 -0.41 -5.70 -6.52 -2.03 0.00 0.00 -0.00 -3.73 -0.21 0.51 -0.59 -0.26 0.60 -0.64 -0.30 0.67 -0.63 -0.28 0.67 1.06 2.92 -3.40 0.91 2.50 -2.92 21.46 0.40 -15.73 3.81 -39.66 69.79 104.79 -10.36 5.28 11.93 25.22 -29.65 -0.82 4.13 4.28 8.26 7.29 0.90 11.64 2.02 0.73 0.00 0.00 0.00 8.66 1.21 -7.93 0.01 0.30 -1.95 -0.01 0.31 -1.98 0.00 0.00 0.00 8.66 1.21 -7.90 -0.01 0.29 -1.98 -0.01 0.31 -1.98 0.00 0.00 0.00 3.34 0.48 -7.98 0.00 0.11 -2.00 -0.02 0.11 -2.00 0.00 0.00 0.00 -21.39 -2.92 -7.45 0.02 -0.73 -1.86 0.01 -0.73 -1.87 -7.23 0.49 -0.44 21.59 -39.98 -85.12 -84.08 -27.22 -32.05 -32.71 3.61 11.11 13.39 22.01 -20.94 8.91 6.59 6.63 13.07 -10.87 5.87 0.00 -0.00 -0.00 0.00 -0.00 -9.61 -0.01 0.02 -2.57 0.01 -0.01 -2.55 0.00 -0.00 -0.00 0.00 -0.00 -90.02 -0.00 0.00 -91.77 -0.00 -0.00 -88.23 0.00 -0.00 -0.00 0.00 -0.00 -90.02 0.00 0.00 -100.00 -0.00 0.00 -80.00 0.00 -0.00 -0.00 0.01 0.00 -67.02 -0.03 0.01 -83.03 -0.01 -0.02 -83.05 
-3.20 110.30 57.82 1.72 0.02 -0.31 -5.85 3.52 -2.90 1.77 0.04 0.00 11.58 -5.27 2.20 -0.00 0.00 -0.00 18.62 3.47 4.46 -14.61 1.11 -0.40 -5.70 -6.52 -2.04 0.00 0.00 -0.00 -3.73 -0.21 0.51 -0.61 -0.26 0.61 -0.66 -0.28 0.68 -0.66 -0.28 0.68 1.07 2.93 -3.41 0.91 2.50 -2.91 21.48 0.39 -15.73 3.82 -39.66 69.72 104.75 -10.36 5.33 11.94 25.14 -29.65 -0.85 4.17 4.33 8.28 7.34 0.90 11.65 2.00 0.72 0.00 0.00 0.00 8.65 1.22 -7.93 -0.00 0.31 -1.95 -0.01 0.30 -1.98 0.00 0.00 0.00 8.65 1.22 -7.90 -0.01 0.30 -1.98 0.00 0.30 -1.98 0.00 0.00 0.00 3.32 0.48 -7.98 -0.01 0.12 -2.00 -0.01 0.10 -2.01 0.00 0.00 0.00 -21.33 -2.90 -7.46 -0.01 -0.73 -1.86 0.03 -0.74 -1.86 -7.23 0.50 -0.44 21.50 -40.01 -85.05 -84.13 -27.19 -31.98 -32.76 3.55 11.08 13.37 22.00 -20.94 8.93 6.56 6.65 13.08 -10.86 5.87 0.00 -0.00 -0.00 -0.00 0.01 -9.58 0.01 -0.00 -2.50 0.01 -0.00 -2.51 0.00 -0.00 -0.00 -0.02 0.00 -90.02 0.00 -0.02 -91.75 0.02 -0.00 -88.25 0.00 -0.00 -0.00 -0.02 0.00 -90.02 -0.00 -0.02 -99.98 0.01 -0.00 -80.02 0.00 -0.00 -0.00 -0.01 0.01 -66.97 -0.02 -0.00 -83.02 -0.01 -0.01 -83.05 
-3.20 110.30 57.82 1.71 0.02 -0.31 -5.85 3.52 -2.89 1.78 0.04 -0.00 11.58 -5.25 2.19 0.00 -0.00 0.00 18.65 3.47 4.48 -14.61 1.09 -0.41 -5.70 -6.51 -2.04 -0.00 0.00 0.00 -3.70 -0.21 0.51 -0.62 -0.26 0.64 -0.67 -0.29 0.69 -0.68 -0.27 0.68 1.07 2.92 -3.40 0.92 2.51 -2.91 21.50 0.39 -15.73 3.84 -39.65 69.65 104.74 -10.38 5.36 11.93 25.12 -29.62 -0.85 4.19 4.35 8.27 7.41 0.88 11.66 1.99 0.72 0.00 -0.00 0.00 8.61 1.20 -7.93 -0.01 0.30 -1.95 -0.01 0.30 -1.98 0.00 -0.00 0.00 8.61 1.20 -7.90 -0.01 0.31 -1.98 -0.01 0.30 -1.98 0.00 -0.00 0.00 3.30 0.46 -7.97 -0.01 0.12 -2.00 0.01 0.10 -2.00 0.00 -0.00 0.00 -21.24 -2.90 -7.47 0.02 -0.73 -1.86 0.00 -0.72 -1.88 -7.24 0.52 -0.42 21.35 -40.07 -84.95 -84.19 -27.18 -31.87 -32.79 3.52 11.06 13.37 22.00 -20.95 8.93 6.55 6.66 13.07 -10.86 5.87 0.00 0.00 0.00 -0.01 -0.00 -9.58 0.01 0.01 -2.49 -0.02 -0.01 -2.48 0.00 0.00 0.00 -0.02 -0.00 -90.02 0.02 -0.02 -91.75 0.02 0.02 -88.25 0.00 0.00 0.00 -0.02 -0.00 -90.02 0.01 -0.02 -99.99 0.01 0.01 -80.01 0.00 0.00 0.00 -0.01 -0.00 -66.93 -0.01 0.00 -83.02 0.00 -0.02 -83.05 
-3.21 110.30 57.82 1.67 0.02 -0.31 -5.81 3.52 -2.89 1.78 0.04 -0.00 11.58 -5.25 2.19 0.00 -0.00 0.00 18.66 3.48 4.49 -14.60 1.09 -0.41 -5.70 -6.51 -2.04 -0.00 -0.00 -0.00 -3.69 -0.21 0.51 -0.62 -0.26 0.65 -0.68 -0.29 0.69 -0.69 -0.27 0.68 1.08 2.92 -3.39 0.92 2.50 -2.90 21.49 0.38 -15.70 3.90 -39.64 69.61 104.70 -10.35 5.41 11.96 25.11 -29.61 -0.87 4.21 4.35 8.28 7.41 0.87 11.66 2.00 0.73 0.00 -0.00 -0.00 8.62 1.22 -7.93 0.00 0.30 -1.96 -0.01 0.30 -1.97 0.00 -0.00 -0.00 8.62 1.21 -7.91 0.00 0.30 -1.96 -0.01 0.30 -1.97 0.00 -0.00 -0.00 3.28 0.46 -7.99 -0.01 0.12 -2.00 -0.01 0.12 -1.99 0.00 -0.00 -0.00 -21.25 -2.89 -7.47 0.01 -0.74 -1.86 0.01 -0.73 -1.86 -7.24 0.52 -0.38 21.27 -40.11 -84.88 -84.25 -27.20 -31.79 -32.84 3.48 11.00 13.41 22.04 -20.95 8.90 6.57 6.66 13.05 -10.86 5.87 0.00 0.00 -0.00 -0.00 0.00 -9.60 0.00 0.00 -2.47 0.00 0.00 -2.47 0.00 0.00 -0.00 -0.02 0.00 -90.01 0.01 -0.02 -91.74 0.02 -0.00 -88.25 0.00 0.00 -0.00 -0.02 0.00 -90.01 -0.00 -0.02 -99.98 0.02 -0.01 -80.02 0.00 0.00 -0.00 -0.01 0.00 -66.91 -0.01 -0.00 -83.03 -0.00 -0.02 -83.04 
-3.21 110.30 57.81 1.66 0.02 -0.31 -5.80 3.52 -2.89 1.78 0.03 -0.00 11.58 -5.24 2.19 0.00 -0.00 0.00 18.67 3.48 4.49 -14.60 1.09 -0.41 -5.70 -6.51 -2.04 -0.00 -0.00 -0.00 -3.68 -0.21 0.51 -0.63 -0.26 0.66 -0.69 -0.29 0.68 -0.69 -0.27 0.70 1.07 2.91 -3.38 0.92 2.50 -2.89 21.50 0.37 -15.71 3.93 -39.63 69.57 104.70 -10.34 5.42 11.95 25.15 -29.57 -0.86 4.20 4.36 8.28 7.42 0.87 11.66 1.99 0.72 -0.00 0.00 -0.00 8.63 1.21 -7.94 -0.01 0.30 -1.95 0.00 0.30 -1.98 -0.00 0.00 -0.00 8.63 1.20 -7.92 -0.01 0.31 -1.96 -0.01 0.30 -1.98 -0.00 0.00 -0.00 3.29 0.46 -7.99 -0.00 0.11 -2.00 -0.01 0.12 -2.01 -0.00 0.00 -0.00 -21.23 -2.91 -7.47 -0.01 -0.72 -1.86 0.01 -0.73 -1.87 -7.24 0.53 -0.39 21.13 -40.14 -84.80 -84.31 -27.16 -31.71 -32.89 3.42 10.98 13.42 22.08 -21.00 8.89 6.57 6.64 13.05 -10.88 5.88 0.00 -0.00 0.00 0.00 0.00 -9.68 0.00 0.00 -2.47 -0.00 0.01 -2.47 0.00 -0.00 0.00 -0.02 0.01 -90.02 -0.00 -0.02 -91.75 0.02 -0.00 -88.25 0.00 -0.00 0.00 -0.02 0.01 -90.02 -0.00 -0.01 -99.99 0.01 -0.00 -80.01 0.00 -0.00 0.00 -0.00 0.01 -66.89 -0.02 0.01 -83.02 -0.00 -0.02 -83.03 
-3.21 110.30 57.81 1.64 0.02 -0.31 -5.78 3.52 -2.89 1.78 0.03 -0.00 11.58 -5.24 2.18 -0.00 0.00 0.00 18.69 3.48 4.49 -14.58 1.08 -0.41 -5.71 -6.49 -2.04 -0.00 -0.00 -0.00 -3.66 -0.21 0.51 -0.64 -0.26 0.67 -0.70 -0.29 0.68 -0.69 -0.27 0.70 1.06 2.88 -3.35 0.91 2.49 -2.88 21.51 0.37 -15.70 3.95 -39.64 69.56 104.70 -10.32 5.46 11.93 25.17 -29.58 -0.89 4.20 4.36 8.26 7.45 0.84 11.64 2.00 0.75 0.00 0.00 -0.00 8.55 1.20 -7.94 0.00 0.28 -1.95 -0.01 0.31 -1.98 0.00 0.00 -0.00 8.55 1.19 -7.91 -0.01 0.29 -1.97 -0.01 0.31 -1.98 0.00 0.00 -0.00 3.25 0.46 -8.00 -0.02 0.12 -1.99 0.01 0.10 -2.00 0.00 0.00 -0.00 -21.09 -2.88 -7.48 0.01 -0.72 -1.87 0.02 -0.73 -1.86 -7.24 0.54 -0.39 21.00 -40.15 -84.72 -84.37 -27.16 -31.65 -32.94 3.39 10.95 13.43 22.05 -20.98 8.87 6.58 6.64 13.01 -10.85 5.86 0.00 0.00 0.00 0.00 -0.01 -9.76 0.01 0.00 -2.54 -0.00 0.00 -2.54 0.00 0.00 0.00 -0.01 -0.01 -90.01 0.00 -0.01 -91.71 0.01 -0.00 -88.29 0.00 0.00 0.00 -0.01 -0.01 -90.01 -0.00 -0.01 -99.99 0.01 -0.00 -80.01 0.00 0.00 0.00 -0.01 -0.01 -66.85 -0.01 0.01 -83.01 -0.01 -0.02 -83.03 
